# xmcd CD database file
#
# Track frame offsets:
#	150
#	18626
#	39400
#	52821
#	72324
#	88187
#	102043
#	115040
#	124522
#	141086
#	156129
#	176233
#	195925
#
# Disc length: 2860 seconds
#
# Revision: 0
# Processed by: cddbd v1.5.1PL0 Copyright (c) Steve Scherf et al.
# Submitted via: CDex 1.51
#
DISCID=a50b2a0d
DTITLE=加藤千晶 - おせっかいカレンダー
DYEAR=2005
DGENRE=Pop
TTITLE0=１月　夜のバス
TTITLE1=２月　チョコレートベトベト
TTITLE2=３月　迷子のステップ
TTITLE3=４月　そしてへそまがりな話しをする
TTITLE4=５月　カミナリ食堂
TTITLE5=６月　あたらしい眼鏡
TTITLE6=７月　トウモロコシのひげ
TTITLE7=８月　らくがき線路
TTITLE8=９月　棒がいっぽん
TTITLE9=１０月　誰そ彼のうた
TTITLE10=１１月　ラムプ
TTITLE11=１２月　雪のまにまに
TTITLE12=１３月　マカロニスコープ
EXTD=YEAR: 2005
EXTT0=
EXTT1=
EXTT2=
EXTT3=
EXTT4=
EXTT5=
EXTT6=
EXTT7=
EXTT8=
EXTT9=
EXTT10=
EXTT11=
EXTT12=
PLAYORDER=
